<svg width="115" height="91" viewBox="0 0 105 91" fill="none" xmlns="http://www.w3.org/2000/svg">
                        <mask id="mask0_23_236" mask-type="luminance" maskUnits="userSpaceOnUse" x="0" y="0" width="105" height="91">
                            <path d="M105 0H0V91H105V0Z" fill="white" />
                        </mask>
                        <g mask="url(#mask0_23_236)">
                            <path d="M66.8142 71.0671C66.611 71.0419 66.2196 71.0295 65.6398 71.0299L65.132 71.0302L65.126 62.5625C65.3968 62.5792 65.6952 62.5875 66.021 62.5872C66.3469 62.587 66.5775 62.5699 66.7129 62.5359L68.8483 66.1589L70.896 62.5329C71.0314 62.5667 71.2896 62.5834 71.6704 62.5832C72.0513 62.5829 72.3771 62.5742 72.6479 62.5571L72.654 71.0249L72.1462 71.0252C71.5664 71.0256 71.175 71.0386 70.9719 71.0641L70.9678 65.3766L68.8948 69.0915L66.8103 65.678L66.8142 71.0671ZM79.1212 69.4968C79.3835 69.4966 79.5655 69.4711 79.667 69.4202L79.6924 69.4265L79.6301 71.0199L74.8757 71.0233L74.8696 62.5364C74.9839 62.5448 75.1108 62.5511 75.2505 62.5552L75.6948 62.5676C75.9911 62.5758 76.3127 62.5798 76.6597 62.5796C77.6287 62.5789 78.5872 62.5613 79.5351 62.5268C79.4888 62.8992 79.4659 63.3964 79.4664 64.0185C79.4664 64.0862 79.4707 64.137 79.4792 64.1708L79.4665 64.1899C79.2464 64.1266 78.9332 64.0951 78.527 64.0953L76.5275 64.0968L76.5286 65.7154L78.033 65.7144C78.4985 65.714 78.7778 65.7011 78.8709 65.6757L78.891 67.2435C78.6879 67.2225 78.4255 67.2121 78.1039 67.2123L76.5297 67.2135L76.5313 69.4986L79.1212 69.4968ZM84.1159 67.7349C83.9886 67.7435 83.8532 67.7478 83.7093 67.7479C83.5654 67.748 83.3517 67.7376 83.0681 67.7166L83.0705 71.0174L81.3884 71.0186L81.3823 62.5318C81.9747 62.4552 82.7025 62.4166 83.5658 62.416C84.7419 62.4151 85.6179 62.6324 86.1939 63.0679C86.7739 63.4991 87.0649 64.1675 87.0649 65.0731C87.0659 65.7756 86.8019 66.3767 86.2729 66.8764C86.0999 67.0373 85.9009 67.1771 85.6769 67.2958L86.9739 70.0244C87.2279 70.587 87.4229 70.9212 87.5579 71.0269L87.5269 71.0586C87.1159 70.9912 86.4709 70.9938 85.5909 71.0664L84.1159 67.7349ZM83.6875 63.9139C83.4717 63.9141 83.2643 63.9248 83.0654 63.9461L83.0672 66.3709C83.2746 66.4004 83.5179 66.415 83.7972 66.4148C84.0769 66.4146 84.3109 66.3912 84.5019 66.3445C84.6919 66.2936 84.8569 66.2173 84.9969 66.1156C85.2969 65.8911 85.4469 65.5546 85.4469 65.106C85.4459 64.6574 85.2899 64.3423 84.9759 64.1605C84.6839 63.9957 84.2549 63.9135 83.6875 63.9139ZM95.9209 65.9174C95.8409 66.0613 95.8009 66.4062 95.8009 66.9521L95.8029 68.9199C95.8029 69.5166 95.4939 70.0352 94.8769 70.4757C94.2379 70.9374 93.4549 71.1686 92.5289 71.1693C91.2419 71.1702 90.2159 70.7668 89.4489 69.9591C88.7079 69.1895 88.3369 68.2079 88.3359 67.0146C88.3349 65.7451 88.7109 64.6868 89.4639 63.8399C90.3049 62.8872 91.4649 62.4103 92.9409 62.4092C93.9269 62.4085 94.7079 62.5984 95.2839 62.9788L95.1839 64.8515L95.1329 64.8642C94.9849 64.6062 94.6929 64.3948 94.2569 64.2301C93.8419 64.0738 93.4059 63.9958 92.9489 63.9961C92.4959 63.9965 92.0979 64.0687 91.7559 64.2128C91.4169 64.3569 91.1299 64.5624 90.8929 64.8292C90.3939 65.3754 90.1449 66.0971 90.1449 66.9942C90.1459 67.7771 90.3659 68.4054 90.8069 68.879C91.2469 69.3484 91.8149 69.5829 92.5089 69.5824C93.2739 69.5818 93.7909 69.3826 94.0569 68.9846C94.1409 68.8576 94.1839 68.7137 94.1839 68.5529L94.1829 67.4992L93.3639 67.4998C92.9239 67.5001 92.6849 67.5383 92.6469 67.6145L92.6279 67.6082L92.5689 65.9515C92.6879 65.9853 93.1679 66.0018 94.0099 66.0012L94.7589 66.0007C95.2249 66.0004 95.6059 65.9684 95.9019 65.9047L95.9209 65.9174ZM101.871 69.4805C102.134 69.4803 102.316 69.4548 102.417 69.4039L102.443 69.4102L102.38 71.0035L97.6259 71.007L97.6199 62.5201C97.7339 62.5285 97.8609 62.5348 98.0009 62.5389L98.4449 62.5513C98.7409 62.5595 99.0629 62.5635 99.4099 62.5633C100.379 62.5626 101.337 62.545 102.285 62.5104C102.239 62.8829 102.216 63.3801 102.216 64.0022C102.217 64.0699 102.221 64.1207 102.229 64.1545L102.217 64.1736C101.996 64.1103 101.683 64.0787 101.277 64.079L99.2779 64.0805L99.2789 65.6991L100.783 65.698C101.249 65.6977 101.528 65.6848 101.621 65.6594L101.641 67.2272C101.438 67.2062 101.176 67.1958 100.854 67.196L99.2799 67.1972L99.2809 69.4823L101.871 69.4805Z" fill="black" />
                            <path d="M17.8057 71.0376C17.3994 71.0122 16.917 70.9995 16.3584 70.9995H16.1553V62.5254C16.4176 62.5465 16.6038 62.5571 16.7139 62.5571H16.9741C17.3084 62.5571 17.5856 62.5402 17.8057 62.5063V65.8896H20.7891V62.5254C21.1403 62.5465 21.481 62.5571 21.811 62.5571C22.1453 62.5571 22.3548 62.5402 22.4395 62.5063V71.0376C22.2363 71.0122 21.8343 70.9995 21.2334 70.9995H20.7891V67.4131H17.8057V71.0376ZM25.4419 69.9966C25.0568 69.6284 24.7521 69.1862 24.5278 68.6699C24.3078 68.1536 24.1978 67.5887 24.1978 66.9751C24.1978 66.3572 24.3014 65.7733 24.5088 65.2231C24.7161 64.673 25.0124 64.1885 25.3975 63.7695C25.7826 63.3506 26.248 63.0184 26.7939 62.7729C27.3398 62.5233 27.9513 62.3984 28.6284 62.3984C29.7964 62.3984 30.7803 62.7666 31.5801 63.5029C32.4349 64.29 32.8623 65.3522 32.8623 66.6894C32.8623 67.9844 32.4222 69.0613 31.542 69.9204C31.0003 70.4494 30.355 70.8133 29.606 71.0122C29.2378 71.1095 28.8062 71.1582 28.311 71.1582C27.8201 71.1582 27.3145 71.0566 26.7939 70.8535C26.2777 70.6504 25.827 70.3647 25.4419 69.9966ZM25.9624 66.8862C25.9624 67.2798 26.028 67.6416 26.1592 67.9717C26.2904 68.3017 26.4723 68.5853 26.7051 68.8223C27.2002 69.3216 27.8371 69.5713 28.6157 69.5713C29.3563 69.5713 29.9508 69.3322 30.3994 68.854C30.8564 68.3589 31.085 67.6839 31.085 66.8291C31.085 66.0251 30.867 65.3543 30.4312 64.8169C29.9614 64.2414 29.3182 63.9536 28.5015 63.9536C27.7101 63.9536 27.0817 64.2456 26.6162 64.8296C26.1803 65.3755 25.9624 66.061 25.9624 66.8862ZM39.832 70.3838C39.5231 70.6292 39.1211 70.8196 38.626 70.9551C38.1309 71.0905 37.5215 71.1582 36.7979 71.1582C36.0785 71.1582 35.3125 71.0926 34.5 70.9614V62.5952C35.321 62.464 36.0319 62.3984 36.6328 62.3984C37.238 62.3984 37.7331 62.4556 38.1182 62.5698C38.5075 62.6841 38.8249 62.8385 39.0703 63.0332C39.5527 63.4098 39.7939 63.8986 39.7939 64.4995C39.7939 65.0962 39.576 65.5913 39.1401 65.9849C39.6564 66.1457 40.0563 66.4503 40.3398 66.8989C40.598 67.3009 40.7271 67.7474 40.7271 68.2383C40.7271 68.7249 40.6551 69.1418 40.5112 69.4888C40.3716 69.8358 40.1452 70.1341 39.832 70.3838ZM36.1821 65.75C36.3599 65.7796 36.582 65.7944 36.8486 65.7944C37.1152 65.7944 37.3332 65.7606 37.5024 65.6929C37.6759 65.6209 37.8092 65.5321 37.9023 65.4263C38.0547 65.2528 38.1309 65.0115 38.1309 64.7026C38.1309 64.0552 37.75 63.7314 36.9883 63.7314C36.6667 63.7314 36.3979 63.7441 36.1821 63.7695V65.75ZM37.1216 67.1084C36.7661 67.1084 36.453 67.1317 36.1821 67.1782V69.6728C36.4784 69.749 36.7894 69.7871 37.1152 69.7871C37.4411 69.7871 37.7267 69.749 37.9722 69.6728C38.2218 69.5924 38.4313 69.4845 38.6006 69.3491C38.9434 69.0698 39.1147 68.7143 39.1147 68.2827C39.1147 67.4998 38.4504 67.1084 37.1216 67.1084ZM47.4365 70.3838C47.1276 70.6292 46.7256 70.8196 46.2305 70.9551C45.7354 71.0905 45.126 71.1582 44.4023 71.1582C43.6829 71.1582 42.917 71.0926 42.1045 70.9614V62.5952C42.9255 62.464 43.6364 62.3984 44.2373 62.3984C44.8424 62.3984 45.3376 62.4556 45.7227 62.5698C46.112 62.6841 46.4294 62.8385 46.6748 63.0332C47.1572 63.4098 47.3984 63.8986 47.3984 64.4995C47.3984 65.0962 47.1805 65.5913 46.7446 65.9849C47.2609 66.1457 47.6608 66.4503 47.9443 66.8989C48.2025 67.3009 48.3315 67.7474 48.3315 68.2383C48.3315 68.7249 48.2596 69.1418 48.1157 69.4888C47.9761 69.8358 47.7497 70.1341 47.4365 70.3838ZM43.7866 65.75C43.9644 65.7796 44.1865 65.7944 44.4531 65.7944C44.7197 65.7944 44.9377 65.7606 45.1069 65.6929C45.2804 65.6209 45.4137 65.5321 45.5068 65.4263C45.6592 65.2528 45.7354 65.0115 45.7354 64.7026C45.7354 64.0552 45.3545 63.7314 44.5928 63.7314C44.2712 63.7314 44.0024 63.7441 43.7866 63.7695V65.75ZM44.7261 67.1084C44.3706 67.1084 44.0575 67.1317 43.7866 67.1782V69.6728C44.0828 69.749 44.3939 69.7871 44.7197 69.7871C45.0456 69.7871 45.3312 69.749 45.5767 69.6728C45.8263 69.5924 46.0358 69.4845 46.2051 69.3491C46.5479 69.0698 46.7192 68.7143 46.7192 68.2827C46.7192 67.4998 46.0549 67.1084 44.7261 67.1084ZM51.48 70.9995C51.535 70.8345 51.5625 70.4494 51.5625 69.8442V68.0796C50.8304 66.4673 50.3628 65.4622 50.1597 65.0644C49.9565 64.6624 49.7852 64.345 49.6455 64.1123C49.2054 63.3675 48.9388 62.9401 48.8457 62.8301C48.7568 62.72 48.6659 62.6291 48.5728 62.5571H50.7627C50.8092 62.6418 50.8727 62.7666 50.9531 62.9316L52.4893 66.1753C52.5612 65.9975 52.6458 65.7987 52.7432 65.5786C53.6657 63.5939 54.1333 62.5867 54.146 62.5571H56.2407C56.0249 62.7306 55.7604 63.0946 55.4473 63.6489C55.3499 63.814 55.2526 64.0023 55.1553 64.2139L53.7207 67.2036C53.5599 67.5633 53.4224 67.887 53.3081 68.1748V69.9966C53.3081 70.4197 53.3335 70.7541 53.3843 70.9995H51.48Z" fill="black" />
                            <path d="M65.3594 57.1406C64.6094 57.0469 63.1641 57 61.0234 57H59.1484V25.7344C60.1484 25.7969 61.25 25.8281 62.4531 25.8281C63.6562 25.8281 64.5078 25.7656 65.0078 25.6406L72.8828 39.0234L80.4531 25.6406C80.9531 25.7656 81.9062 25.8281 83.3125 25.8281C84.719 25.8281 85.922 25.7969 86.922 25.7344V57H85.047C82.9062 57 81.4609 57.0469 80.7109 57.1406V36.1406L73.0469 49.8516L65.3594 37.2422V57.1406Z" fill="black" />
                            <path d="M42.8125 58.1875C40.8125 58.0625 38.4375 58 35.6875 58H34.6875V16.2812C35.9792 16.3854 36.8958 16.4375 37.4375 16.4375H38.7188C40.3646 16.4375 41.7292 16.3542 42.8125 16.1875V32.8438H57.5V16.2812C59.2292 16.3854 60.9062 16.4375 62.5312 16.4375C64.1771 16.4375 65.2083 16.3542 65.625 16.1875V58.1875C64.625 58.0625 62.6458 58 59.6875 58H57.5V40.3438H42.8125V58.1875Z" fill="black" />
                        </g>
                    </svg>